<svg width="41" height="37" viewBox="0 0 41 37" fill="none" xmlns="http://www.w3.org/2000/svg">
<path d="M27.6232 35.0466C38.9121 39.247 39.3122 28.405 38.3846 25.0842C32.3134 20.1003 12.3938 23.9736 3.19287 26.5331C3.19287 33.4629 6.51442 36.2595 11.8951 34.19C15.8832 32.6561 19.7592 32.1205 27.6232 35.0466Z" fill="#FFCC00" stroke="black" stroke-width="1.4313"/>
<path d="M11.0982 21.733C9.47179 22.4135 5.78836 23.1933 3.87489 21.733C3.02748 21.1263 2.49991 20.519 2.20498 19.9354C1.52888 21.5233 0.867366 26.1943 3.06166 27.072C3.49219 27.2474 4.602 27.3973 5.59701 26.5936C6.84077 25.5891 8.89775 26.2109 9.42395 27.4069C10.0937 28.4912 11.8923 30.0092 13.7293 27.4069C15.5662 24.8045 16.3443 24.251 16.9822 24.6178C19.087 25.828 18.3503 27.5025 20.3786 27.6939C21.9094 27.8383 21.431 25.144 24.6361 25.144C26.9322 25.144 26.3812 28.3954 29.6924 28.3954C31.348 28.3954 31.7619 25.144 33.4175 25.144C35.3322 25.144 36.3148 26.5936 37.5565 25.912C38.5224 25.3817 42.1094 21.9243 38.3843 17.634C38.1412 19.5951 36.8969 21.357 36.0212 21.733C33.1988 22.9448 27.5732 24.3353 23.2488 21.9243C18.9243 19.5133 13.3466 20.7922 11.0982 21.733Z" fill="#88C23A" stroke="black" stroke-width="1.43209"/>
<path d="M11.0981 21.733C9.47166 22.4135 5.78823 23.1932 3.87476 21.733C0.507048 19.322 2.1907 15.2459 3.45349 14.337C3.68207 15.8944 38.0615 13.6672 38.0615 13.6672C39.2728 17.3411 37.2648 21.1989 36.0211 21.733C33.1987 22.9448 27.5731 24.3353 23.2487 21.9243C18.9242 19.5133 13.3464 20.7922 11.0981 21.733Z" fill="#CD0067" stroke="black" stroke-width="1.4313"/>
<path d="M6.91794 18.7342C1.78983 17.28 3.37801 11.6544 5.00446 9.98009C21.1938 -6.68545 39.9253 3.37862 38.7772 11.8936C37.6292 20.4085 27.8226 20.3129 23.8522 18.4472C19.8817 16.5816 15.7677 16.0075 13.1367 17.634C11.0319 18.9352 8.11385 18.9096 6.91794 18.7342Z" fill="#FFCC00" stroke="black" stroke-width="1.4313"/>
<path d="M19.7806 11.0724C20.1542 14.5072 24.0275 14.1958 23.6122 10.3782L19.7806 11.0724Z" fill="black"/>
<path d="M16.5076 9.27793C16.5076 9.88558 16.015 10.3782 15.4074 10.3782C14.7997 10.3782 14.3071 9.88558 14.3071 9.27793C14.3071 8.67028 14.7997 8.17768 15.4074 8.17768C16.015 8.17768 16.5076 8.67028 16.5076 9.27793Z" fill="black"/>
<path d="M27.3187 7.07743C27.3187 7.68508 26.8261 8.17768 26.2185 8.17768C25.6108 8.17768 25.1182 7.68508 25.1182 7.07743C25.1182 6.46978 25.6108 5.97718 26.2185 5.97718C26.8261 5.97718 27.3187 6.46978 27.3187 7.07743Z" fill="black"/>
</svg>
